<svg width="316" height="37" viewBox="0 0 316 37" fill="none" xmlns="http://www.w3.org/2000/svg">
<path d="M12.6049 36H0.988941V11.76H11.5009C11.3569 13.68 10.4929 15.648 9.67694 16.848H13.6609C14.2849 13.776 15.7729 10.944 19.7089 10.944C22.6849 10.944 25.0369 12.768 25.3729 16.848H28.4929C29.4529 12.528 32.2849 10.944 35.8369 10.944C40.1569 10.944 43.2289 14.16 43.2289 19.632V36H31.6129V21.6C31.6129 19.968 30.7969 19.104 29.6929 19.104C28.5889 19.104 27.7249 19.968 27.7249 21.6V36H16.4929V21.6C16.4929 19.968 15.6289 19.104 14.5249 19.104C13.4209 19.104 12.6049 19.968 12.6049 21.6V36ZM61.8166 36.864C52.6966 36.864 47.0326 31.92 47.0326 23.904C47.0326 15.888 52.6966 10.896 61.8166 10.896C70.9846 10.896 76.7926 15.936 76.7926 23.904C76.7926 31.872 70.9846 36.864 61.8166 36.864ZM61.8646 29.568C63.6886 29.568 64.5526 27.888 64.5526 23.808C64.5526 19.728 63.6886 18.192 61.8646 18.192C60.0406 18.192 59.2726 19.728 59.2726 23.808C59.2726 27.888 60.0406 29.568 61.8646 29.568ZM93.7988 36.864C84.8708 36.864 79.8788 31.872 79.8788 24.096C79.8788 16.176 85.2548 10.896 93.7988 10.896C101.287 10.896 106.471 14.448 107.671 20.112L96.7268 22.32C96.4868 19.68 95.3828 18.144 93.7508 18.144C91.9268 18.144 91.0148 19.968 91.0148 23.808C91.0148 27.6 91.9268 29.616 93.7508 29.616C95.2868 29.616 96.3428 28.176 96.7268 25.44L107.863 26.832C106.567 33.36 101.911 36.864 93.7988 36.864ZM144.075 36H130.635L124.827 26.784L122.475 28.992V36H111.339V2.4H122.475V9.408C122.475 15.072 119.979 17.76 116.859 19.68L119.163 22.176L129.915 11.76H143.499L133.467 20.736L144.075 36ZM167.352 36H158.088C152.712 36 149.928 33.216 149.928 27.84V18.96H145.512V11.76H149.928V4.56H161.208V11.76H166.056V18.96H161.208V26.4C161.208 27.36 161.688 27.84 162.648 27.84H167.352V36ZM183.902 36.864C174.974 36.864 169.886 32.16 169.886 23.712C169.886 16.128 175.55 10.896 183.806 10.896C193.79 10.896 198.59 16.8 197.534 25.872H181.118C181.118 28.512 182.03 29.712 183.854 29.712C185.63 29.712 186.638 28.56 187.262 26.88L197.966 29.472C195.854 34.08 191.63 36.864 183.902 36.864ZM181.214 21.072H186.542C186.638 18.96 185.582 17.568 183.902 17.568C182.174 17.568 181.262 18.72 181.214 21.072ZM213.815 36.864C203.399 36.864 200.855 32.208 200.423 28.944L211.031 28.128C211.127 29.616 211.943 30.576 213.911 30.576C215.447 30.576 216.407 30.144 216.407 29.04C216.407 28.032 215.543 27.6 213.911 27.312L211.223 26.832C204.647 25.68 201.623 23.904 201.623 19.008C201.623 14.736 205.463 10.896 214.055 10.896C223.463 10.896 226.199 14.64 226.727 17.808L216.167 19.152C215.927 17.712 214.967 16.896 213.431 16.896C212.135 16.896 211.559 17.472 211.559 18.288C211.559 19.2 212.471 19.536 214.439 19.872L218.039 20.448C224.231 21.456 227.399 24.192 227.399 28.464C227.399 33.36 223.223 36.864 213.815 36.864ZM251.313 36H242.049C236.673 36 233.889 33.216 233.889 27.84V18.96H229.473V11.76H233.889V4.56H245.169V11.76H250.017V18.96H245.169V26.4C245.169 27.36 245.649 27.84 246.609 27.84H251.313V36ZM267.32 36H255.464V25.728H267.32V36ZM278.756 36.864C274.484 36.864 271.604 34.224 271.604 29.616C271.604 24.288 277.316 21.024 287.348 20.592V19.824C287.348 18.336 286.58 17.472 284.948 17.472C283.22 17.472 282.5 18.288 282.212 20.16L271.22 18.864C272.036 13.776 277.412 10.896 285.572 10.896C293.636 10.896 298.148 14.448 298.148 20.784V26.928C298.148 27.984 298.436 28.32 299.3 28.32H300.74V36H294.98C290.756 36 289.988 33.696 289.988 31.008H286.916C286.052 34.224 283.892 36.864 278.756 36.864ZM284.324 30.096C286.052 30.096 287.348 28.704 287.348 26.448V25.104C284.132 25.392 282.452 26.448 282.452 28.32C282.452 29.424 283.22 30.096 284.324 30.096ZM315.993 9.36H304.185V0.959999H315.993V9.36ZM315.993 36H304.233V11.76H315.993V36Z" fill="white"/>
</svg>
